<svg height='100px' width='100px'  fill="#000000" xmlns="http://www.w3.org/2000/svg" xmlns:xlink="http://www.w3.org/1999/xlink" version="1.1" x="0px" y="0px" viewBox="0 0 100 100" enable-background="new 0 0 100 100" xml:space="preserve"><polygon points="53.5,27.5 53.5,16.5 70,16.5 70,8.5 29,8.5 29,16.5 45.5,16.5 45.5,27.5 0,27.5 0,100 8,100 8,35.5 92,35.5 92,100   100,100 100,27.5 "></polygon><g><polygon points="32.879,48.879 28,53.758 23.121,48.879 18.879,53.121 23.758,58 18.879,62.879 23.121,67.121 28,62.242    32.879,67.121 37.121,62.879 32.242,58 37.121,53.121  "></polygon><polygon points="81.121,53.121 76.879,48.879 72,53.758 67.121,48.879 62.879,53.121 67.758,58 62.879,62.879 67.121,67.121    72,62.242 76.879,67.121 81.121,62.879 76.242,58  "></polygon></g><rect x="42" y="79" width="16" height="6"></rect></svg>