<svg height='100px' width='100px'  fill="#FFFFFF" xmlns="http://www.w3.org/2000/svg" xmlns:xlink="http://www.w3.org/1999/xlink" version="1.1" x="0px" y="0px" viewBox="0 0 100 100" enable-background="new 0 0 100 100" xml:space="preserve"><polygon points="53.5,27.5 53.5,16.5 70,16.5 70,8.5 29,8.5 29,16.5 45.5,16.5 45.5,27.5 0,27.5 0,100 8,100 8,35.5 92,35.5 92,100   100,100 100,27.5 "></polygon><circle cx="72" cy="58" r="6"></circle><circle cx="28" cy="59" r="6"></circle><rect x="42" y="79" width="16" height="6"></rect><rect x="71" y="36.922" transform="matrix(0.3715 0.9284 -0.9284 0.3715 87.9781 -39.9567)" width="5" height="16.155"></rect><rect x="18.422" y="42.5" transform="matrix(0.9285 0.3714 -0.3714 0.9285 18.6079 -6.6233)" width="16.155" height="5"></rect><polygon points="53.5,27.5 53.5,16.5 70,16.5 70,8.5 29,8.5 29,16.5 45.5,16.5 45.5,27.5 0,27.5 0,100 8,100 8,35.5 92,35.5 92,100   100,100 100,27.5 "></polygon><circle cx="72" cy="58" r="6"></circle><circle cx="28" cy="59" r="6"></circle><rect x="71" y="36.922" transform="matrix(0.3715 0.9284 -0.9284 0.3715 87.9781 -39.9567)" width="5" height="16.155"></rect><rect x="18.422" y="42.5" transform="matrix(0.9285 0.3714 -0.3714 0.9285 18.6079 -6.6233)" width="16.155" height="5"></rect></svg>