<svg height='100px' width='100px'  fill="#FFFFFF" xmlns="http://www.w3.org/2000/svg" xmlns:xlink="http://www.w3.org/1999/xlink" version="1.1" x="0px" y="0px" viewBox="0 0 100 100" enable-background="new 0 0 100 100" xml:space="preserve"><circle cx="-87" cy="58" r="6"></circle><circle cx="-131" cy="58" r="6"></circle><polygon points="-404.5,27.5 -404.5,16.5 -388,16.5 -388,8.5 -429,8.5 -429,16.5 -412.5,16.5 -412.5,27.5 -458,27.5 -458,100   -450,100 -450,35.5 -366,35.5 -366,100 -358,100 -358,27.5 "></polygon><polygon points="-276.5,27.5 -276.5,16.5 -260,16.5 -260,8.5 -301,8.5 -301,16.5 -284.5,16.5 -284.5,27.5 -330,27.5 -330,100   -322,100 -322,35.5 -238,35.5 -238,100 -230,100 -230,27.5 "></polygon><polygon points="-105.5,27.5 -105.5,16.5 -89,16.5 -89,8.5 -130,8.5 -130,16.5 -113.5,16.5 -113.5,27.5 -159,27.5 -159,100   -151,100 -151,35.5 -67,35.5 -67,100 -59,100 -59,27.5 "></polygon><polygon points="53.5,27.5 53.5,16.5 70,16.5 70,8.5 29,8.5 29,16.5 45.5,16.5 45.5,27.5 0,27.5 0,100 8,100 8,35.5 92,35.5 92,100   100,100 100,27.5 "></polygon><polygon points="184.5,27.5 184.5,16.5 201,16.5 201,8.5 160,8.5 160,16.5 176.5,16.5 176.5,27.5 131,27.5 131,100 139,100   139,35.5 223,35.5 223,100 231,100 231,27.5 "></polygon><polygon points="336.5,27.5 336.5,16.5 353,16.5 353,8.5 312,8.5 312,16.5 328.5,16.5 328.5,27.5 283,27.5 283,100 291,100   291,35.5 375,35.5 375,100 383,100 383,27.5 "></polygon><circle cx="355" cy="58" r="6"></circle><circle cx="311" cy="59" r="6"></circle><rect x="325" y="79" width="16" height="6"></rect><rect x="354" y="36.922" transform="matrix(0.3715 0.9284 -0.9284 0.3715 265.8555 -302.7079)" width="5" height="16.155"></rect><rect x="301.422" y="42.5" transform="matrix(0.9285 0.3714 -0.3714 0.9285 38.8491 -111.7269)" width="16.155" height="5"></rect><polygon points="336.5,27.5 336.5,16.5 353,16.5 353,8.5 312,8.5 312,16.5 328.5,16.5 328.5,27.5 283,27.5 283,100 291,100   291,35.5 375,35.5 375,100 383,100 383,27.5 "></polygon><polygon points="492.5,27.5 492.5,16.5 509,16.5 509,8.5 468,8.5 468,16.5 484.5,16.5 484.5,27.5 439,27.5 439,100 447,100   447,35.5 531,35.5 531,100 539,100 539,27.5 "></polygon><polygon points="634.5,27.5 634.5,16.5 651,16.5 651,8.5 610,8.5 610,16.5 626.5,16.5 626.5,27.5 581,27.5 581,100 589,100   589,35.5 673,35.5 673,100 681,100 681,27.5 "></polygon><polygon points="754.5,27.5 754.5,16.5 771,16.5 771,8.5 730,8.5 730,16.5 746.5,16.5 746.5,27.5 701,27.5 701,100 709,100   709,35.5 793,35.5 793,100 801,100 801,27.5 "></polygon><polygon points="874.5,27.5 874.5,16.5 891,16.5 891,8.5 850,8.5 850,16.5 866.5,16.5 866.5,27.5 821,27.5 821,100 829,100   829,35.5 913,35.5 913,100 921,100 921,27.5 "></polygon><polygon points="994.5,27.5 994.5,16.5 1011,16.5 1011,8.5 970,8.5 970,16.5 986.5,16.5 986.5,27.5 941,27.5 941,100 949,100   949,35.5 1033,35.5 1033,100 1041,100 1041,27.5 "></polygon><circle cx="-258" cy="58" r="6"></circle><circle cx="-302" cy="58" r="6"></circle><path d="M-279.647,91c-13.85,0-18.616-10.589-19.201-16.188l5.966-0.641C-292.753,75.279-291.287,85-279.647,85  c10.137,0,12.48-10.66,12.575-11.113l5.873,1.227C-262.347,80.608-267.68,91-279.647,91z"></path><rect x="-119" y="79" width="6.75" height="6"></rect><rect x="-107.75" y="79" width="6.75" height="6"></rect><rect x="-96.5" y="79" width="6.75" height="6"></rect><rect x="623" y="79" width="16" height="6"></rect><circle cx="72" cy="58" r="6"></circle><circle cx="28" cy="58" r="6"></circle><circle cx="203" cy="58" r="6"></circle><circle cx="159" cy="58" r="6"></circle><rect x="178" y="66.317" transform="matrix(0.1455 0.9894 -0.9894 0.1455 237.2717 -107.7243)" width="5.999" height="34.366"></rect><circle cx="512" cy="58" r="6"></circle><circle cx="752" cy="83" r="6"></circle><circle cx="466" cy="58" r="6"></circle><rect x="454" y="52" width="24" height="5"></rect><rect x="500" y="52" width="24" height="5"></rect><circle cx="355" cy="58" r="6"></circle><circle cx="311" cy="59" r="6"></circle><rect x="481" y="79" width="16" height="6"></rect><rect x="354" y="36.922" transform="matrix(0.3715 0.9284 -0.9284 0.3715 265.8555 -302.7079)" width="5" height="16.155"></rect><rect x="301.422" y="42.5" transform="matrix(0.9285 0.3714 -0.3714 0.9285 38.8491 -111.7269)" width="16.155" height="5"></rect><rect x="647.188" y="42.75" transform="matrix(0.9104 0.4138 -0.4138 0.9104 77.7613 -267.4716)" width="18.125" height="6"></rect><rect x="603.25" y="36.688" transform="matrix(0.4137 0.9104 -0.9104 0.4137 397.0737 -525.1065)" width="6" height="18.125"></rect><circle cx="653" cy="58" r="6"></circle><circle cx="609" cy="58" r="6"></circle><rect x="718" y="54" width="20" height="8"></rect><rect x="764" y="54" width="20" height="8"></rect><circle cx="-386" cy="58" r="6"></circle><circle cx="-430" cy="58" r="6"></circle><path d="M-407.25,91.282c-9.185,0-16.273-8.518-16.57-8.88l-2.215-2.702l3.005-1.781c0.289-0.171,7.186-4.201,15.78-4.201  c8.499,0,15.335,3.467,15.623,3.614l3.201,1.647l-2.197,2.852C-390.92,82.217-398.01,91.282-407.25,91.282z M-416.258,81.417  c2.227,1.826,5.499,3.865,9.008,3.865c3.485,0,6.748-2.177,8.969-4.123c-2.332-0.726-5.507-1.441-8.969-1.441  C-410.74,79.718-413.94,80.57-416.258,81.417z"></path><rect x="-440.621" y="48.5" transform="matrix(0.7071 0.7071 -0.7071 0.7071 -92.7248 324.8574)" width="4.243" height="4"></rect><rect x="-423.5" y="48.379" transform="matrix(0.7071 0.7071 -0.7071 0.7071 -87.7456 312.8366)" width="4" height="4.243"></rect><rect x="-432" y="45" width="4" height="4"></rect><rect x="-396.621" y="48.5" transform="matrix(0.7071 0.7071 -0.7071 0.7071 -79.8375 293.7447)" width="4.243" height="4"></rect><rect x="-379.5" y="48.379" transform="matrix(0.7071 0.7071 -0.7071 0.7071 -74.8583 281.7239)" width="4" height="4.243"></rect><rect x="-388" y="45" width="4" height="4"></rect><circle cx="893" cy="58" r="6"></circle><circle cx="849" cy="58" r="6"></circle><path d="M871,88c5.522,0,10-4.478,10-10h-20C861,83.522,865.477,88,871,88z"></path><g><polygon points="973.879,48.879 969,53.758 964.121,48.879 959.879,53.121 964.758,58 959.879,62.879 964.121,67.121 969,62.242    973.879,67.121 978.121,62.879 973.242,58 978.121,53.121  "></polygon><polygon points="1022.121,53.121 1017.879,48.879 1013,53.758 1008.121,48.879 1003.879,53.121 1008.758,58 1003.879,62.879    1008.121,67.121 1013,62.242 1017.879,67.121 1022.121,62.879 1017.242,58  "></polygon></g><rect x="983" y="79" width="16" height="6"></rect><g><polygon points="59.79,75.74 56.255,72.205 49.939,78.52 43.625,72.205 40.09,75.74 46.404,82.055 40.17,88.29 43.705,91.825    49.939,85.59 56.175,91.825 59.71,88.29 53.475,82.055  "></polygon><rect x="31" y="80" width="10" height="4"></rect><rect x="59" y="80" width="10" height="4"></rect></g></svg>