<svg height='100px' width='100px'  fill="#FFFFFF" xmlns="http://www.w3.org/2000/svg" xmlns:xlink="http://www.w3.org/1999/xlink" version="1.1" x="0px" y="0px" viewBox="0 0 100 100" enable-background="new 0 0 100 100" xml:space="preserve"><polygon points="53.5,27.5 53.5,16.5 70,16.5 70,8.5 29,8.5 29,16.5 45.5,16.5 45.5,27.5 0,27.5 0,100 8,100 8,35.5 92,35.5 92,100   100,100 100,27.5 "></polygon><circle cx="72" cy="58" r="6"></circle><circle cx="28" cy="58" r="6"></circle><path d="M50.353,91c-13.85,0-18.616-10.589-19.201-16.188l5.966-0.641C37.247,75.279,38.713,85,50.353,85  c10.137,0,12.48-10.66,12.575-11.113l5.873,1.227C67.653,80.608,62.32,91,50.353,91z"></path></svg>