<svg height='100px' width='100px'  fill="#FFFFFF" xmlns="http://www.w3.org/2000/svg" xmlns:xlink="http://www.w3.org/1999/xlink" version="1.1" x="0px" y="0px" viewBox="0 0 100 100" enable-background="new 0 0 100 100" xml:space="preserve"><circle cx="-1148" cy="58" r="6"></circle><circle cx="-1192" cy="58" r="6"></circle><polygon points="-1465.5,27.5 -1465.5,16.5 -1449,16.5 -1449,8.5 -1490,8.5 -1490,16.5 -1473.5,16.5 -1473.5,27.5 -1519,27.5   -1519,100 -1511,100 -1511,35.5 -1427,35.5 -1427,100 -1419,100 -1419,27.5 "></polygon><polygon points="-1337.5,27.5 -1337.5,16.5 -1321,16.5 -1321,8.5 -1362,8.5 -1362,16.5 -1345.5,16.5 -1345.5,27.5 -1391,27.5   -1391,100 -1383,100 -1383,35.5 -1299,35.5 -1299,100 -1291,100 -1291,27.5 "></polygon><polygon points="-1166.5,27.5 -1166.5,16.5 -1150,16.5 -1150,8.5 -1191,8.5 -1191,16.5 -1174.5,16.5 -1174.5,27.5 -1220,27.5   -1220,100 -1212,100 -1212,35.5 -1128,35.5 -1128,100 -1120,100 -1120,27.5 "></polygon><polygon points="-1007.5,27.5 -1007.5,16.5 -991,16.5 -991,8.5 -1032,8.5 -1032,16.5 -1015.5,16.5 -1015.5,27.5 -1061,27.5   -1061,100 -1053,100 -1053,35.5 -969,35.5 -969,100 -961,100 -961,27.5 "></polygon><polygon points="-876.5,27.5 -876.5,16.5 -860,16.5 -860,8.5 -901,8.5 -901,16.5 -884.5,16.5 -884.5,27.5 -930,27.5 -930,100   -922,100 -922,35.5 -838,35.5 -838,100 -830,100 -830,27.5 "></polygon><polygon points="-724.5,27.5 -724.5,16.5 -708,16.5 -708,8.5 -749,8.5 -749,16.5 -732.5,16.5 -732.5,27.5 -778,27.5 -778,100   -770,100 -770,35.5 -686,35.5 -686,100 -678,100 -678,27.5 "></polygon><circle cx="-706" cy="58" r="6"></circle><circle cx="-750" cy="59" r="6"></circle><rect x="-736" y="79" width="16" height="6"></rect><rect x="-707" y="36.922" transform="matrix(0.3715 0.9284 -0.9284 0.3715 -401.0276 682.3772)" width="5" height="16.155"></rect><rect x="-759.578" y="42.5" transform="matrix(0.9285 0.3714 -0.3714 0.9285 -37.0372 282.3187)" width="16.155" height="5"></rect><polygon points="-724.5,27.5 -724.5,16.5 -708,16.5 -708,8.5 -749,8.5 -749,16.5 -732.5,16.5 -732.5,27.5 -778,27.5 -778,100   -770,100 -770,35.5 -686,35.5 -686,100 -678,100 -678,27.5 "></polygon><polygon points="-568.5,27.5 -568.5,16.5 -552,16.5 -552,8.5 -593,8.5 -593,16.5 -576.5,16.5 -576.5,27.5 -622,27.5 -622,100   -614,100 -614,35.5 -530,35.5 -530,100 -522,100 -522,27.5 "></polygon><polygon points="-426.5,27.5 -426.5,16.5 -410,16.5 -410,8.5 -451,8.5 -451,16.5 -434.5,16.5 -434.5,27.5 -480,27.5 -480,100   -472,100 -472,35.5 -388,35.5 -388,100 -380,100 -380,27.5 "></polygon><polygon points="-306.5,27.5 -306.5,16.5 -290,16.5 -290,8.5 -331,8.5 -331,16.5 -314.5,16.5 -314.5,27.5 -360,27.5 -360,100   -352,100 -352,35.5 -268,35.5 -268,100 -260,100 -260,27.5 "></polygon><polygon points="-186.5,27.5 -186.5,16.5 -170,16.5 -170,8.5 -211,8.5 -211,16.5 -194.5,16.5 -194.5,27.5 -240,27.5 -240,100   -232,100 -232,35.5 -148,35.5 -148,100 -140,100 -140,27.5 "></polygon><polygon points="-66.5,27.5 -66.5,16.5 -50,16.5 -50,8.5 -91,8.5 -91,16.5 -74.5,16.5 -74.5,27.5 -120,27.5 -120,100 -112,100   -112,35.5 -28,35.5 -28,100 -20,100 -20,27.5 "></polygon><circle cx="-1319" cy="58" r="6"></circle><circle cx="-1363" cy="58" r="6"></circle><path d="M-1340.647,91c-13.85,0-18.616-10.589-19.201-16.188l5.966-0.641c0.129,1.108,1.596,10.829,13.235,10.829  c10.137,0,12.48-10.66,12.575-11.113l5.873,1.227C-1323.347,80.608-1328.68,91-1340.647,91z"></path><polygon points="53.5,27.5 53.5,16.5 70,16.5 70,8.5 29,8.5 29,16.5 45.5,16.5 45.5,27.5 0,27.5 0,100 8,100 8,35.5 92,35.5 92,100   100,100 100,27.5 "></polygon><circle cx="72" cy="58" r="6"></circle><circle cx="28" cy="58" r="6"></circle><rect x="-1180" y="79" width="6.75" height="6"></rect><rect x="-1168.75" y="79" width="6.75" height="6"></rect><rect x="-1157.5" y="79" width="6.75" height="6"></rect><rect x="-438" y="79" width="16" height="6"></rect><circle cx="-989" cy="58" r="6"></circle><circle cx="-1033" cy="58" r="6"></circle><circle cx="-858" cy="58" r="6"></circle><circle cx="-902" cy="58" r="6"></circle><rect x="-883" y="66.317" transform="matrix(0.1455 0.9894 -0.9894 0.1455 -669.3295 941.9814)" width="5.999" height="34.366"></rect><circle cx="-549" cy="58" r="6"></circle><circle cx="-309" cy="83" r="6"></circle><circle cx="-595" cy="58" r="6"></circle><rect x="-607" y="52" width="24" height="5"></rect><rect x="-561" y="52" width="24" height="5"></rect><circle cx="-706" cy="58" r="6"></circle><circle cx="-750" cy="59" r="6"></circle><rect x="-580" y="79" width="16" height="6"></rect><rect x="-707" y="36.922" transform="matrix(0.3715 0.9284 -0.9284 0.3715 -401.0276 682.3772)" width="5" height="16.155"></rect><rect x="-759.578" y="42.5" transform="matrix(0.9285 0.3714 -0.3714 0.9285 -37.0372 282.3187)" width="16.155" height="5"></rect><rect x="-413.812" y="42.75" transform="matrix(0.9104 0.4138 -0.4138 0.9104 -17.3506 171.597)" width="18.125" height="6"></rect><rect x="-457.75" y="36.688" transform="matrix(0.4137 0.9104 -0.9104 0.4137 -224.9529 440.8248)" width="6" height="18.125"></rect><circle cx="-408" cy="58" r="6"></circle><circle cx="-452" cy="58" r="6"></circle><rect x="-343" y="54" width="20" height="8"></rect><rect x="-297" y="54" width="20" height="8"></rect><circle cx="-1447" cy="58" r="6"></circle><circle cx="-1491" cy="58" r="6"></circle><path d="M-1468.25,91.282c-9.185,0-16.273-8.518-16.57-8.88l-2.215-2.702l3.005-1.781c0.289-0.171,7.186-4.201,15.78-4.201  c8.499,0,15.335,3.467,15.623,3.614l3.201,1.647l-2.197,2.852C-1451.92,82.217-1459.01,91.282-1468.25,91.282z M-1477.258,81.417  c2.227,1.826,5.499,3.865,9.008,3.865c3.485,0,6.748-2.177,8.969-4.123c-2.332-0.726-5.507-1.441-8.969-1.441  C-1471.74,79.718-1474.94,80.57-1477.258,81.417z"></path><rect x="-1501.621" y="48.5" transform="matrix(0.7071 0.7071 -0.7071 0.7071 -403.4845 1075.0978)" width="4.243" height="4"></rect><rect x="-1484.5" y="48.379" transform="matrix(0.7071 0.7071 -0.7071 0.7071 -398.5054 1063.0769)" width="4" height="4.243"></rect><rect x="-1493" y="45" width="4" height="4"></rect><rect x="-1457.621" y="48.5" transform="matrix(0.7071 0.7071 -0.7071 0.7071 -390.5973 1043.985)" width="4.243" height="4"></rect><rect x="-1440.5" y="48.379" transform="matrix(0.7071 0.7071 -0.7071 0.7071 -385.618 1031.9642)" width="4" height="4.243"></rect><rect x="-1449" y="45" width="4" height="4"></rect><circle cx="-168" cy="58" r="6"></circle><circle cx="-212" cy="58" r="6"></circle><path d="M-190,88c5.522,0,10-4.478,10-10h-20C-200,83.522-195.523,88-190,88z"></path><g><polygon points="-87.121,48.879 -92,53.758 -96.879,48.879 -101.121,53.121 -96.242,58 -101.121,62.879 -96.879,67.121 -92,62.242    -87.121,67.121 -82.879,62.879 -87.758,58 -82.879,53.121  "></polygon><polygon points="-38.879,53.121 -43.121,48.879 -48,53.758 -52.879,48.879 -57.121,53.121 -52.242,58 -57.121,62.879    -52.879,67.121 -48,62.242 -43.121,67.121 -38.879,62.879 -43.758,58  "></polygon></g><rect x="-78" y="79" width="16" height="6"></rect><g><polygon points="-1001.21,75.74 -1004.745,72.205 -1011.061,78.52 -1017.375,72.205 -1020.91,75.74 -1014.596,82.055    -1020.83,88.29 -1017.295,91.825 -1011.061,85.59 -1004.825,91.825 -1001.29,88.29 -1007.525,82.055  "></polygon><rect x="-1030" y="80" width="10" height="4"></rect><rect x="-1002" y="80" width="10" height="4"></rect></g><path d="M61.383,89.264C59.333,84.852,54.864,82,50,82s-9.333,2.852-11.383,7.264l-5.441-2.527C36.206,80.214,42.81,76,50,76  s13.794,4.214,16.824,10.736L61.383,89.264z"></path></svg>