<svg height='100px' width='100px'  fill="#FFFFFF" xmlns="http://www.w3.org/2000/svg" xmlns:xlink="http://www.w3.org/1999/xlink" version="1.1" x="0px" y="0px" viewBox="0 0 100 100" enable-background="new 0 0 100 100" xml:space="preserve"><polygon points="53.5,27.5 53.5,16.5 70,16.5 70,8.5 29,8.5 29,16.5 45.5,16.5 45.5,27.5 0,27.5 0,100 8,100 8,35.5 92,35.5 92,100   100,100 100,27.5 "></polygon><rect x="42" y="79" width="16" height="6"></rect><rect x="66.188" y="42.75" transform="matrix(0.9104 0.4138 -0.4138 0.9104 25.6783 -27.0391)" width="18.125" height="6"></rect><rect x="22.25" y="36.688" transform="matrix(0.4137 0.9104 -0.9104 0.4137 56.4541 3.8342)" width="6" height="18.125"></rect><circle cx="72" cy="58" r="6"></circle><circle cx="28" cy="58" r="6"></circle></svg>