<svg height='100px' width='100px'  fill="#FFFFFF" xmlns="http://www.w3.org/2000/svg" xmlns:xlink="http://www.w3.org/1999/xlink" version="1.1" x="0px" y="0px" viewBox="0 0 100 100" enable-background="new 0 0 100 100" xml:space="preserve"><polygon points="53.5,27.5 53.5,16.5 70,16.5 70,8.5 29,8.5 29,16.5 45.5,16.5 45.5,27.5 0,27.5 0,100 8,100 8,35.5 92,35.5 92,100   100,100 100,27.5 "></polygon><circle cx="72" cy="58" r="6"></circle><circle cx="28" cy="58" r="6"></circle><path d="M50.75,91.282c-9.185,0-16.273-8.518-16.57-8.88L31.965,79.7l3.005-1.781c0.289-0.171,7.186-4.201,15.78-4.201  c8.499,0,15.335,3.467,15.623,3.614l3.201,1.647l-2.197,2.852C67.08,82.217,59.99,91.282,50.75,91.282z M41.742,81.417  c2.227,1.826,5.499,3.865,9.008,3.865c3.485,0,6.748-2.177,8.969-4.123c-2.332-0.726-5.507-1.441-8.969-1.441  C47.26,79.718,44.06,80.57,41.742,81.417z"></path><rect x="17.379" y="48.5" transform="matrix(0.7071 0.7071 -0.7071 0.7071 41.4203 1.0025)" width="4.243" height="4"></rect><rect x="34.5" y="48.379" transform="matrix(0.7071 0.7071 -0.7071 0.7071 46.3995 -11.0183)" width="4" height="4.243"></rect><rect x="26" y="45" width="4" height="4"></rect><rect x="61.379" y="48.5" transform="matrix(0.7071 0.7071 -0.7071 0.7071 54.3076 -30.1102)" width="4.243" height="4"></rect><rect x="78.5" y="48.379" transform="matrix(0.7071 0.7071 -0.7071 0.7071 59.2868 -42.131)" width="4" height="4.243"></rect><rect x="70" y="45" width="4" height="4"></rect></svg>